Coordinates
version=1
nRows=17
nColumns=24
inDegrees=yes

Units are S.I. units (second, meters, Newtons, ...)
Angles are in degrees.

endheader
time	pelvis_tilt	pelvis_list	pelvis_rotation	pelvis_tx	pelvis_ty	pelvis_tz	hip_flexion_r	hip_adduction_r	hip_rotation_r	knee_angle_r	ankle_angle_r	subtalar_angle_r	mtp_angle_r	hip_flexion_l	hip_adduction_l	hip_rotation_l	knee_angle_l	ankle_angle_l	subtalar_angle_l	mtp_angle_l	lumbar_extension	lumbar_bending	lumbar_rotation
      2.23000000	     15.19819691	     -2.70239018	      4.83577993	      1.02075884	      0.91027501	      0.34147253	     10.29358784	      4.05930311	     -3.07840775	    -26.90411691	     12.58683528	      2.27480838	     39.14696019	    -19.15736149	     -3.76049624	     -2.07328309	    -53.11606031	     10.69580508	     11.67337841	     50.91419549	    -27.78214033	      7.02119483	      2.50844489
      2.23500000	     14.78349191	     -3.03920010	      5.02073186	      1.02657320	      0.90973757	      0.34137542	     10.46530794	      4.53638404	     -2.90149031	    -27.06528763	     12.88943064	      1.64114944	     38.71254494	    -17.46085586	     -4.08226535	     -1.58735408	    -55.43922110	     10.85829289	     10.65685342	     50.42838918	    -27.37555870	      7.46466008	      2.49866852
      2.24000000	     14.46339976	     -3.29431442	      5.17849508	      1.03244123	      0.90950707	      0.34122451	     10.48348418	      4.93361960	     -2.67959328	    -27.17056195	     13.42292747	      1.18728703	     36.54759597	    -15.91424675	     -4.26770704	     -1.09567260	    -57.58365953	     11.26298716	      9.59199092	     48.80820243	    -27.07770674	      7.81884005	      2.48874726
      2.24500000	     14.27960393	     -3.63656610	      5.47600359	      1.03827480	      0.90955055	      0.34105359	     10.27830803	      5.45051686	     -2.50786655	    -27.08065025	     13.57522497	      0.30691249	     36.14898918	    -14.47299214	     -4.64290861	     -0.63928485	    -59.63678152	     11.57450267	      8.60665881	     48.79936939	    -26.89246281	      8.31527592	      2.37341768
      2.25000000	     14.07850754	     -3.93322948	      5.75410318	      1.04411415	      0.90973508	      0.34089170	     10.05726671	      5.91090811	     -2.29245778	    -26.93523913	     13.84293807	     -0.40629702	     35.70637247	    -13.03253067	     -4.94895089	     -0.17391086	    -61.54763534	     11.75124049	      7.47106371	     48.79347144	    -26.69868296	      8.74667448	      2.25759910
      2.25500000	     13.87850545	     -4.20150651	      5.92203592	      1.05001208	      0.91007421	      0.34073405	      9.82890086	      6.31922432	     -2.01504773	    -26.79897783	     14.13950584	     -0.80849901	     35.11561495	    -11.64772893	     -5.19650870	      0.14616866	    -63.28222367	     11.91451238	      6.17807245	     48.68190652	    -26.51352819	      9.10838746	      2.29120557
      2.26000000	     13.75719909	     -4.38214192	      6.12093731	      1.05596631	      0.91068603	      0.34061039	      9.53928614	      6.60235073	     -1.92531694	    -26.75337950	     14.50415450	     -1.08894530	     34.48054347	    -10.34703854	     -5.39150032	      0.45455198	    -64.88811692	     12.04899653	      4.81144790	     48.55403058	    -26.40980017	      9.39559451	      2.14281557
      2.26500000	     13.62866167	     -4.55092395	      6.28560022	      1.06179707	      0.91138033	      0.34035716	      9.26056686	      6.83955425	     -1.90028817	    -26.71338673	     14.87304129	     -1.20109187	     33.63850702	     -9.03657598	     -5.56011171	      0.71261736	    -66.38834603	     12.13773568	      3.49690591	     48.20682506	    -26.30104330	      9.66011610	      2.08141855
      2.27000000	     13.68473357	     -4.68544890	      6.50428552	      1.06759811	      0.91242878	      0.34007069	      8.69996531	      7.06333562	     -1.86616193	    -26.51876993	     15.13249264	     -1.52087831	     33.49619959	     -7.93732220	     -5.74600378	      0.93679779	    -67.75383518	     12.30328974	      2.05827005	     48.01004315	    -26.39479090	      9.91338253	      1.91796604
      2.27500000	     13.40217889	     -4.76262792	      6.75380748	      1.07329231	      0.91298704	      0.33973811	      8.55443596	      7.16179437	     -1.91483454	    -26.42891045	     15.54843226	     -1.82160418	     33.08360244	     -6.38478516	     -5.80460428	      1.28753465	    -69.16766574	     12.62426719	      1.06491510	     47.69384390	    -26.11069152	     10.10295043	      1.63468138
      2.28000000	     13.22394350	     -4.84381602	      6.95567212	      1.07905601	      0.91387465	      0.33956061	      8.20958025	      7.28889745	     -1.91460573	    -26.16821991	     15.89596686	     -1.91430276	     32.43047523	     -4.98660854	     -5.88159557	      1.53823786	    -70.42291744	     12.90257110	      0.03634732	     47.01495211	    -25.94392215	     10.25772524	      1.40726679
      2.28500000	     13.22032361	     -4.83480895	      7.12165591	      1.08473662	      0.91512078	      0.33920038	      7.64485686	      7.32155636	     -1.97111953	    -25.86353056	     16.17687919	     -2.02957166	     32.26393550	     -3.84655349	     -5.83324707	      1.76826702	    -71.47193125	     13.03403652	     -0.95523802	     46.71694961	    -25.99108077	     10.31935829	      1.29129919
      2.29000000	     13.07560305	     -4.78943213	      7.29792895	      1.09041212	      0.91611154	      0.33883058	      7.26281092	      7.28661935	     -2.07549009	    -25.64480597	     16.55758778	     -1.95008663	     31.87460990	     -2.56353815	     -5.73209646	      1.99049552	    -72.43777454	     13.42409770	     -1.59153764	     46.37345780	    -25.87080244	     10.34776018	      0.97868285
      2.29500000	     13.04632532	     -4.86721445	      7.50688591	      1.09623799	      0.91734660	      0.33844002	      6.58186346	      7.40959689	     -2.14274188	    -25.05733518	     16.84579236	     -1.80722093	     30.88136104	     -1.40971159	     -5.82353726	      2.15316879	    -73.31613836	     13.80690032	     -2.19243779	     45.11753317	    -25.84652066	     10.52049720	      0.77801158
      2.30000000	     13.12886333	     -4.93914469	      7.67998817	      1.10203663	      0.91882659	      0.33824202	      5.64156693	      7.58138985	     -2.02368170	    -24.18056739	     16.89801908	     -1.89415721	     30.81776612	     -0.39423880	     -5.96768171	      2.21596815	    -74.05116552	     14.04524006	     -2.69390392	     45.00982464	    -25.95619256	     10.65551977	      0.61571429
      2.30500000	     13.19311716	     -5.08492289	      7.88033633	      1.10797688	      0.92032226	      0.33805085	      4.60033807	      7.84622994	     -1.84783411	    -23.04760201	     16.85815090	     -2.06003028	     30.74342375	      0.62141432	     -6.20733977	      2.32081272	    -74.69815659	     14.42575876	     -2.86909924	     44.92504232	    -26.02103296	     10.86424866	      0.39947438
      2.31000000	     13.26149442	     -5.19294405	      8.01844927	      1.11392499	      0.92181701	      0.33796080	      3.53976011	      8.09093054	     -1.52933890	    -21.90126554	     16.77019174	     -2.37321774	     30.70548020	      1.58762218	     -6.42920131	      2.31449055	    -75.22674688	     14.94675870	     -2.70730873	     44.92477708	    -26.09757455	     11.00839107	      0.20637143
